<svg width="173" height="157" viewBox="0 0 173 157" fill="none" xmlns="http://www.w3.org/2000/svg">
<g clip-path="url(#clip0_17_2232)">
<path d="M29.0305 146.828C29.1692 146.243 29.1877 145.637 29.0849 145.045C28.9821 144.454 28.7601 143.889 28.4325 143.385C28.1048 142.881 27.6781 142.449 27.1783 142.114C26.6785 141.779 26.1159 141.549 25.5244 141.438C24.6874 141.298 23.8276 141.442 23.0826 141.848C22.3376 142.253 21.7503 142.896 21.4148 143.674C21.3322 142.842 20.9781 142.061 20.407 141.45C19.8358 140.838 19.0792 140.431 18.2535 140.291C17.6721 140.206 17.0795 140.236 16.5099 140.381C15.9403 140.525 15.405 140.781 14.9348 141.132C14.4647 141.484 14.0689 141.925 13.7704 142.431C13.4719 142.936 13.2766 143.495 13.1956 144.075C13.1956 144.591 12.2184 149.81 19.4031 155.544C28.0246 152.562 28.8868 147.344 29.0305 146.828Z" stroke="#777777" stroke-linecap="round" stroke-linejoin="round"/>
<path d="M79.409 126.872C79.6552 125.706 79.6654 124.502 79.4388 123.331C79.2122 122.161 78.7534 121.048 78.0894 120.057C77.4254 119.066 76.5697 118.217 75.5723 117.561C74.575 116.904 73.4563 116.454 72.2818 116.235C70.5889 115.956 68.8512 116.247 67.3423 117.062C65.8334 117.877 64.6391 119.169 63.9477 120.736C63.8253 119.025 63.1387 117.402 61.995 116.121C60.8513 114.84 59.3148 113.973 57.6252 113.654C56.4413 113.468 55.232 113.522 54.0692 113.812C52.9065 114.101 51.814 114.621 50.8569 115.341C49.8997 116.061 49.0974 116.965 48.4976 118C47.8978 119.035 47.5128 120.18 47.3655 121.367C47.1644 122.399 45.3826 132.836 59.9243 144.305C77.426 138.57 79.2653 127.933 79.409 126.872Z" stroke="#777777" stroke-linecap="round" stroke-linejoin="round"/>
<path d="M40.8133 75.4915C40.9595 74.8038 40.9664 74.0938 40.8337 73.4033C40.7009 72.7128 40.4311 72.0558 40.0402 71.4708C39.6493 70.8858 39.1452 70.3846 38.5574 69.9968C37.9696 69.609 37.3101 69.3422 36.6175 69.2123C35.6218 69.0536 34.6014 69.2258 33.7134 69.7025C32.8254 70.1791 32.1191 70.9337 31.7032 71.8502C31.6292 70.8455 31.2217 69.8941 30.5451 69.1464C29.8685 68.3986 28.9614 67.8972 27.9672 67.7214C27.2718 67.6163 26.5624 67.6506 25.8805 67.8224C25.1986 67.9942 24.5579 68.3 23.9959 68.7218C23.4339 69.1437 22.9619 69.6732 22.6076 70.2792C22.2532 70.8853 22.0235 71.5559 21.9321 72.2516C21.9321 72.8537 20.7826 79.1042 29.3466 85.7849C39.635 82.2582 40.7271 76.0363 40.8133 75.4915Z" stroke="#777777" stroke-linecap="round" stroke-linejoin="round"/>
<path d="M118.572 132.417C118.429 131.832 118.407 131.225 118.508 130.631C118.609 130.038 118.831 129.472 119.159 128.967C119.487 128.462 119.916 128.029 120.418 127.696C120.92 127.362 121.485 127.134 122.078 127.026C122.915 126.887 123.775 127.031 124.52 127.437C125.265 127.842 125.852 128.485 126.188 129.263C126.252 128.416 126.598 127.615 127.171 126.986C127.743 126.358 128.51 125.938 129.349 125.794C129.93 125.709 130.523 125.739 131.092 125.884C131.662 126.028 132.197 126.284 132.668 126.635C133.138 126.987 133.533 127.428 133.832 127.933C134.13 128.439 134.326 128.998 134.407 129.578C134.407 130.094 135.384 135.313 128.199 141.047C119.549 138.151 118.658 132.933 118.572 132.417Z" stroke="#777777" stroke-linecap="round" stroke-linejoin="round"/>
<path d="M63.3729 36.3827C63.2558 35.8083 63.2536 35.2165 63.3667 34.6413C63.4797 34.0662 63.7057 33.519 64.0316 33.0313C64.3575 32.5436 64.7768 32.125 65.2655 31.7997C65.7542 31.4744 66.3025 31.2487 66.879 31.1357C67.7196 30.9995 68.5817 31.1451 69.3305 31.5498C70.0793 31.9544 70.6725 32.5953 71.0174 33.3721C71.0803 32.5293 71.4222 31.7311 71.9892 31.1032C72.5562 30.4752 73.3162 30.053 74.1499 29.9028C74.7319 29.8138 75.3258 29.8415 75.8969 29.9844C76.468 30.1273 77.0048 30.3824 77.4759 30.7349C77.9469 31.0874 78.3427 31.5301 78.6401 32.0371C78.9375 32.5441 79.1305 33.1052 79.2079 33.6875C79.2079 34.1749 80.185 39.4219 73.0291 45.013C64.4362 42.1171 63.5166 36.8988 63.3729 36.3827Z" stroke="#777777" stroke-linecap="round" stroke-linejoin="round"/>
<path d="M78.0009 79.1902C77.8254 78.3388 77.8211 77.4612 77.9882 76.6081C78.1553 75.755 78.4905 74.9436 78.9744 74.2208C79.4583 73.4979 80.0812 72.8782 80.807 72.3974C81.5328 71.9166 82.3471 71.5844 83.2026 71.4201C84.4239 71.242 85.6702 71.461 86.7571 72.0445C87.844 72.628 88.7137 73.5451 89.2377 74.66C89.3473 73.4153 89.8614 72.2404 90.7017 71.314C91.5421 70.3875 92.6628 69.7603 93.8933 69.5277C94.7635 69.399 95.6508 69.4464 96.5023 69.6672C97.3537 69.888 98.1519 70.2776 98.8492 70.8127C99.5465 71.3478 100.129 72.0176 100.561 72.782C100.993 73.5465 101.267 74.3899 101.365 75.2621C101.365 76.0076 102.802 83.8638 92.169 92.0354C79.4378 87.6772 78.1158 79.9644 78.0009 79.1902Z" stroke="#777777" stroke-linecap="round" stroke-linejoin="round"/>
<path d="M136.944 80.9393C136.818 80.3105 136.818 79.6631 136.944 79.0343C137.07 78.4054 137.319 77.8076 137.676 77.2749C138.034 76.7422 138.494 76.2851 139.029 75.9299C139.564 75.5747 140.164 75.3284 140.795 75.2049C141.719 75.0523 142.668 75.2085 143.494 75.6492C144.32 76.0898 144.978 76.7904 145.364 77.642C145.437 76.7161 145.815 75.8403 146.439 75.1507C147.062 74.4611 147.897 73.9963 148.813 73.8286C149.467 73.7104 150.139 73.7261 150.788 73.8747C151.436 74.0233 152.048 74.3017 152.585 74.6931C153.123 75.0846 153.575 75.5808 153.914 76.1518C154.254 76.7227 154.474 77.3566 154.56 78.0148C154.56 78.5595 155.652 84.3227 147.721 90.5158C138.093 87.2759 137.03 81.5128 136.944 80.9393Z" stroke="#777777" stroke-linecap="round" stroke-linejoin="round"/>
<path d="M88.4043 37.4148V2.37744" stroke="#777777" stroke-linecap="round" stroke-linejoin="round"/>
<path d="M47.7679 56.3099L20.8687 33.8022" stroke="#777777" stroke-linecap="round" stroke-linejoin="round"/>
<path d="M36.1577 99.5188L1.58521 105.597" stroke="#777777" stroke-linecap="round" stroke-linejoin="round"/>
<path d="M138.237 108.436L171.229 120.421" stroke="#777777" stroke-linecap="round" stroke-linejoin="round"/>
<path d="M134.328 63.8793L164.734 46.3606" stroke="#777777" stroke-linecap="round" stroke-linejoin="round"/>
</g>
<defs>
<clipPath id="clip0_17_2232">
<rect width="172.517" height="155.948" fill="white" transform="translate(0.148193 0.943848)"/>
</clipPath>
</defs>
</svg>
