<svg width="290" height="96" viewBox="0 0 290 96" fill="none" xmlns="http://www.w3.org/2000/svg">
<path d="M48.8708 93.5434C30.4093 79.4436 9.26572 63.8315 2.8061 40.2961C1.0919 34.2547 0.564005 27.9385 1.25158 21.6965C1.87257 16.3746 3.32427 10.3965 7.16817 6.43268C13.6139 -0.224786 24.2347 1.37076 31.6876 5.25041C41.7389 10.5007 49.0763 20.9215 52.1465 31.6781C52.9083 34.335 54.1326 38.06 53.026 40.7485C51.8423 43.6464 48.1932 43.5531 46.005 41.8964C41.1744 38.2949 43.7533 29.7277 45.5351 25.145C47.4902 20.1402 50.4743 15.6017 54.2943 11.8231C58.1142 8.04443 62.6849 5.10984 67.7106 3.20917C70.8575 2.05314 74.3907 1.08991 77.7649 1.65409C80.5018 2.18039 82.9923 3.58482 84.8589 5.65439C89.1008 10.1593 90.5317 16.667 90.1209 22.6916C89.2328 35.5509 81.4098 47.1253 74.4994 57.5476C70.9604 62.8912 67.3132 68.1548 63.8626 73.5562C62.1266 76.2698 60.4409 79.0147 58.8497 81.817C58.1013 83.1455 57.3658 84.4848 56.661 85.8333C56.0784 86.9447 55.2846 88.2295 55.4028 89.5183C55.8242 94.356 62.9834 90.7589 64.9956 89.368C68.7273 86.7845 71.4182 82.9926 73.9572 79.3033C76.6761 75.3541 79.3163 71.1852 83.0001 68.0517C86.5182 65.0511 91.0332 63.4778 95.6543 63.6423C105.163 63.8927 114.656 70.7409 115.38 80.6949C115.75 85.7635 113.699 91.8356 108.628 93.8922C104.599 95.5243 98.9778 94.2739 96.6939 90.3552C93.5223 84.9347 98.6007 79.1352 102.584 75.8803C107.136 72.1852 112.111 69.0453 117.405 66.5268C127.904 61.5772 139.27 58.7327 150.863 58.1542C162.481 57.5323 174.12 58.909 185.273 62.2243C198.19 66.0392 210.3 72.2067 223.681 74.4318C236.01 76.4863 249.027 75.7578 260.656 70.9371C270.334 66.9659 278.567 60.1319 284.252 51.3506C286.935 47.129 288.859 42.4701 289.935 37.5849C290.053 37.0205 289.181 36.864 289.057 37.423C286.553 48.8976 279.06 58.7211 269.43 65.2209C258.257 72.749 244.502 75.3951 231.195 74.4328C224.139 73.8715 217.177 72.4508 210.465 70.202C203.534 67.9394 196.815 65.0923 189.908 62.7621C178.278 58.7876 166.038 56.8984 153.752 57.1815C141.604 57.427 129.629 60.1074 118.535 65.0638C113.056 67.5521 107.886 70.6723 103.131 74.3608C99.1418 77.4792 94.499 81.9178 94.9285 87.4639C95.2564 91.7079 98.8686 94.5933 102.859 95.3183C105.017 95.7246 107.249 95.4624 109.255 94.5668C111.26 93.6712 112.945 92.1849 114.084 90.3064C116.76 86.0689 116.991 80.4473 115.265 75.8126C113.59 71.5796 110.499 68.0582 106.519 65.8483C102.536 63.5409 97.9507 62.4867 93.3602 62.8231C88.8365 63.2193 84.5937 65.1846 81.366 68.3788C77.6915 71.8929 75.0601 76.2993 72.1412 80.415C69.2222 84.5306 65.9515 88.5756 61.2158 90.4421C60.0649 90.9118 58.3923 91.4806 57.1706 90.7944C55.1195 89.686 57.2157 86.6609 57.9378 85.3049C59.6142 82.1794 61.4194 79.0964 63.3076 76.0775C66.9668 70.1991 70.9226 64.5094 74.7588 58.7466C81.8967 47.9946 90.0681 36.1098 90.9921 22.8421C91.3944 17.0626 90.2061 10.945 86.5716 6.29776C85.0422 4.27606 83.037 2.66368 80.7341 1.60404C77.8542 0.353219 74.7318 0.422584 71.7152 1.09055C61.1268 3.42509 51.9494 10.8747 46.782 20.3049C44.2113 24.9981 42.0838 30.8801 42.4906 36.3031C42.7049 38.7634 43.5837 41.3267 45.7045 42.7568C47.4013 43.9021 49.7783 44.3744 51.6743 43.4286C53.7313 42.4152 54.3661 40.1253 54.2699 37.9944C54.2062 35.2112 53.3557 32.2879 52.4509 29.6315C50.5292 23.832 47.4907 18.4648 43.5069 13.8327C37.1744 6.46485 28.0546 0.620907 18.0096 0.983383C13.8521 1.06693 9.87275 2.68724 6.83942 5.53171C2.99163 9.2456 1.40332 14.8185 0.586366 19.9429C-1.37741 32.2881 2.07291 45.0139 8.50365 55.5612C15.0103 66.2272 24.205 74.9845 33.7771 82.8746C38.5216 86.7876 43.3812 90.5177 48.3006 94.2486C48.754 94.5964 49.3262 93.9149 48.8729 93.5671L48.8708 93.5434Z" fill="#303030"/>
</svg>
