<svg width="279" height="136" viewBox="0 0 279 136" fill="none" xmlns="http://www.w3.org/2000/svg">
<path d="M1.29302 54.0327C16.2019 47.9495 32.384 53.7798 46.0739 60.2967C53.4333 63.7922 60.6673 67.6558 68.3688 70.3704C76.0615 73.1189 84.1466 74.6093 92.3136 74.7846C94.5329 74.8548 96.7545 74.8023 98.9681 74.6274C100.685 74.5879 102.359 74.0789 103.808 73.1555C105.711 71.7689 106.475 68.6849 104.499 67.0074C104.445 66.9687 104.38 66.9481 104.314 66.9484C104.247 66.9486 104.183 66.9699 104.129 67.009C104.075 67.0481 104.035 67.1032 104.014 67.1664C103.994 67.2296 103.993 67.2976 104.014 67.361C103.925 67.1194 104.025 67.2869 103.862 67.5226L103.461 68.3027C102.999 69.1997 102.531 70.0872 102.053 70.9816C100.618 73.6731 99.1527 76.343 97.6943 79.0224C95.3372 83.2888 92.9801 87.5552 90.7146 91.8277C87.9683 97.1205 85.0433 102.318 82.4687 107.697C81.9394 108.811 77.4526 117.076 81.4084 116.671C82.0107 116.549 82.5614 116.246 82.9867 115.802C83.412 115.358 83.6915 114.794 83.7879 114.187C84.1942 112.143 82.9021 110.185 81.457 108.878C78.1916 105.918 72.9689 105.061 68.7291 104.756C66.955 104.628 64.9805 104.755 63.5669 105.975C62.8755 106.639 62.3834 107.484 62.1461 108.414C61.9089 109.343 61.9358 110.321 62.224 111.236C62.7335 113.348 64.4097 114.953 66.0971 116.273C68.2047 117.836 70.4421 119.215 72.7847 120.396C77.6635 122.875 82.9076 124.556 88.3178 125.374C90.718 125.752 93.4388 126.181 95.8675 125.897C97.3721 125.704 98.5747 124.756 98.2444 123.11C97.8175 120.901 95.7631 119.076 94.3698 117.44C92.4292 115.161 91.1219 112.712 91.474 109.622C91.7946 106.839 93.0868 104.251 94.4354 101.841C95.7839 99.4315 97.1554 97.1432 98.5593 94.8094C104.284 85.213 110.838 76.2281 120.092 69.7344C124.581 66.5881 129.356 63.8665 133.72 60.5488C137.897 57.429 141.464 53.5662 144.244 49.1536C149.947 40.0093 152.211 28.9569 151.637 18.2752C151.534 16.5725 151.622 14.4108 150.806 12.857C149.989 11.3033 148.03 10.3199 146.639 9.41766C144.192 7.83475 141.672 6.34975 139.193 4.81233C136.946 3.31726 134.533 2.08814 132.003 1.1496C129.682 0.379001 126.769 -0.172644 124.356 0.442065C121.345 1.21554 122.201 3.90556 123.492 5.92202C124.886 7.90818 126.543 9.69545 128.417 11.2348C130.175 12.8774 132.113 14.3144 134.195 15.5183C136.244 16.6557 138.485 17.4034 140.806 17.7237C142.318 17.9114 144.543 18.1693 145.421 16.6126C146.209 15.1936 145.219 13.4524 144.121 12.5119C142.726 11.314 140.916 10.7674 139.278 9.99479C134.507 7.76731 130.235 4.35353 124.73 4.37987C123.66 4.35956 122.608 4.11036 121.644 3.64903C121.314 3.51841 120.96 3.45959 120.606 3.47648C120.252 3.49337 119.905 3.58558 119.589 3.74697C117.553 4.7086 115.7 6.01718 114.111 7.61427C110.575 10.9697 108.004 15.2025 105.466 19.3308C102.735 23.7828 100.182 28.381 98.8499 33.4667C97.4841 38.916 97.3829 44.6056 98.5539 50.0995C99.3423 53.9171 100.332 58.1123 102.383 61.4544C104.633 65.1397 109.421 66.0291 113.398 65.0114C115.766 64.2982 118.013 63.2309 120.063 61.8455C122.512 60.3426 124.895 58.7504 127.209 57.0689C129.593 55.3361 131.887 53.4826 134.083 51.5156C135.35 50.3662 136.304 48.9143 135.345 47.2454C134.16 45.1951 131.478 45.0591 129.369 44.8617C126.312 44.5907 123.223 44.5172 120.184 44.0215C117.368 43.6307 114.671 42.6302 112.281 41.0896C110.063 39.5594 107.629 36.8823 108.51 33.9602C109.568 30.4587 114.142 31.4746 116.874 31.7787C119.866 32.09 123.127 32.3509 125.837 33.7054C128.247 34.9285 130.15 36.9148 132.239 38.568C134.322 40.1335 136.595 41.4268 139.004 42.4167C143.241 44.2902 147.93 46.4459 152.627 45.0273C152.69 45.0014 152.743 44.9559 152.778 44.8976C152.813 44.8394 152.828 44.7714 152.821 44.7037C152.792 42.2705 150.34 41.4203 148.326 41.1536C145.273 40.7484 141.678 39.6675 139.992 36.7878C138.563 34.3617 141.477 33.5138 143.222 33.4515C144.849 33.457 146.456 33.808 147.937 34.4813C150.723 35.6202 153.308 37.2333 155.959 38.6377C156.974 39.2989 158.163 39.6445 159.374 39.6312C160.773 39.4176 162.141 39.0327 163.447 38.4853C166.575 37.2584 169.854 36.4619 173.196 36.1174C176.658 35.8939 180.133 35.9648 183.583 36.3291C186.798 36.6671 190.742 37.0862 192.659 40.0529C194.805 43.3763 191.889 46.7535 188.967 48.2999C186.865 49.3441 184.52 49.7965 182.181 49.6086C177.396 49.3436 172.832 47.4101 168.494 45.5882C166.653 44.8173 164.316 43.395 162.277 43.3942C160.239 43.3934 159.604 45.3341 159.772 47.106C160.255 52.1658 163.629 56.7872 167.088 60.2837C171.144 64.3689 176.196 67.3219 181.744 68.8501C184.273 69.5859 186.548 69.7421 188.958 68.5112C191.367 67.2803 193.193 65.0467 194.633 62.7523C197.857 57.5604 200.016 51.7782 200.984 45.7431C201.953 39.708 201.711 33.5406 200.274 27.6007C199.551 24.6588 198.544 21.7946 197.266 19.0484C196.247 16.6541 194.99 14.3683 193.514 12.2256C190.365 7.99373 184.288 7.26383 179.361 7.20416C176.541 7.17123 173.733 7.58241 171.04 8.42263C168.772 9.12777 165.662 10.1555 164.155 12.1273C162.956 13.6924 163.636 15.4186 165.49 15.8962C168.128 16.5818 171.41 16.1798 174.083 15.8927C176.979 15.5823 179.838 14.9967 182.623 14.1437C185.217 13.3466 188.109 12.4195 190.348 10.8245C191.888 9.6589 193.226 7.53384 192.339 5.51373C191.453 3.49362 189.108 3.19157 187.239 3.1331C180.957 2.91505 174.675 3.59182 168.583 5.14312C165.915 5.75644 163.438 7.01911 161.374 8.81922C159.309 10.6193 157.72 12.9013 156.747 15.4629C155.711 18.3905 155.08 21.4457 154.869 24.5439C154.505 27.9269 153.604 31.234 153.38 34.639C152.954 41.0818 155.197 46.5707 157.904 52.276C160.504 57.7452 163.014 63.2003 166.952 67.8851C168.988 70.1077 170.868 72.4692 172.577 74.9526C174.326 77.8861 175.733 81.0107 176.771 84.2652C178.781 90.4101 179.957 96.7983 180.264 103.258C180.458 106.467 180.506 109.688 180.43 112.897C180.39 115.985 180.7 119.685 179.22 122.555C177.74 125.425 174.317 126.193 171.282 126.364C169.331 126.453 166.901 126.635 166.146 128.809C165.48 130.737 166.829 132.922 168.368 134.008C170.646 135.59 173.893 135.722 176.499 135.863C182.931 136.194 189.353 135.033 195.264 132.47C197.495 131.515 200.155 130.568 201.877 128.782C203.228 127.367 203.269 125.291 201.496 124.244C200.635 123.787 199.691 123.506 198.72 123.419C196.928 123.136 195.106 122.993 193.304 122.776C190.574 122.456 186.993 121.444 184.395 122.806C182.823 123.637 181.766 125.427 182.64 127.15C182.818 127.518 183.088 127.834 183.423 128.067C183.759 128.3 184.149 128.442 184.556 128.48C184.962 128.518 185.372 128.45 185.745 128.283C186.118 128.116 186.441 127.855 186.684 127.526C188.416 125.514 187.465 121.873 187.28 119.516C186.991 116.005 186.743 112.5 186.333 109.012C185.529 102.139 183.51 95.4884 184.932 88.5532C185.265 86.9192 185.697 85.3008 186.112 83.6798C186.544 82.3944 186.811 81.0594 186.907 79.7068C186.889 78.2704 186.25 76.2303 184.427 76.4658C183.006 76.6635 182.342 78.3635 182.623 79.6304C183.106 81.9075 186.015 82.6947 187.954 83.2195C194.368 85.0145 201.154 84.9876 207.737 85.072C213.883 85.1974 220.111 85.133 226.172 83.9295C229.088 83.3613 231.935 82.4813 234.664 81.3044C235.964 80.6943 237.295 80.1525 238.652 79.6813C240.51 79.1355 242.455 78.9497 244.382 79.134C247.833 79.3658 251.291 79.7167 254.736 80.0403C258.037 80.2458 261.259 81.1384 264.196 82.661C268.849 85.2073 272.838 89.0823 278.223 89.8719C278.298 89.8714 278.37 89.8443 278.427 89.7953C278.484 89.7464 278.522 89.6788 278.533 89.6046C278.545 89.5304 278.53 89.4545 278.491 89.3905C278.452 89.3264 278.391 89.2783 278.32 89.2548C273.446 88.5373 269.689 85.2216 265.573 82.7431C263.625 81.5148 261.492 80.6093 259.256 80.0612C256.441 79.5433 253.595 79.2103 250.736 79.0644C247.973 78.7153 245.193 78.5109 242.409 78.452C239.96 78.6046 237.567 79.2484 235.371 80.345C230.542 82.4382 225.402 83.7221 220.157 84.1453C214.993 84.5111 209.813 84.5984 204.64 84.407C198.625 84.3024 192.372 84.1602 186.626 82.1839C185.425 81.882 184.351 81.2047 183.561 80.2505C182.739 78.9994 183.7 76.0561 185.467 77.4055C187.358 78.8249 185.742 82.8204 185.299 84.5635C184.486 87.3438 183.976 90.2038 183.778 93.0936C183.757 95.7639 184.021 98.4286 184.564 101.043C185.563 106.732 186.182 112.429 186.615 118.231L186.945 122.55C187.064 124.044 187.345 125.893 186.267 127.123C184.37 129.27 182.033 126.245 183.569 124.303C184.708 122.847 186.727 122.709 188.426 122.834C191.331 123.055 194.217 123.502 197.12 123.841C198.295 123.9 199.456 124.108 200.578 124.462C202.696 125.293 202.655 127.319 201.039 128.751C199.154 130.343 196.65 131.264 194.397 132.199C191.676 133.329 188.842 134.163 185.943 134.686C183.052 135.206 180.114 135.407 177.18 135.287C174.518 135.18 171.052 135.097 168.788 133.535C166.211 131.763 165.695 127.769 169.423 127.15C171.465 126.806 173.512 127.019 175.514 126.348C180.351 124.732 180.882 120.135 181.005 115.661C181.193 110.529 181.071 105.39 180.642 100.273C179.705 90.1834 177.141 79.2388 170.583 71.2485C169.017 69.3153 167.311 67.5286 165.82 65.5482C164.216 63.3685 162.805 61.0526 161.604 58.6268C159.228 53.9772 156.688 49.1414 155.097 44.1601C154.195 41.2998 153.811 38.3006 153.965 35.3047C154.1 32.4168 154.855 29.6602 155.236 26.8111C155.982 21.2788 156.321 15.7584 159.907 11.1796C163.325 6.81053 168.689 5.58996 173.899 4.76654C176.657 4.33982 179.435 4.05426 182.222 3.91096C184.718 3.78987 188.068 3.27216 190.385 4.44677C191.063 4.78999 191.579 5.38718 191.82 6.10875C192.061 6.83032 192.008 7.61806 191.673 8.30102C190.917 9.64345 189.721 10.6826 188.286 11.2415C185.987 12.3432 183.591 13.2302 181.129 13.8915C178.449 14.6335 175.707 15.1272 172.936 15.3663C171.741 15.4647 170.537 15.5194 169.339 15.5247C168.015 15.5352 166.271 15.6988 165.021 15.1309C162.425 13.9629 165.29 11.657 166.516 10.99C167.721 10.3178 168.983 9.75195 170.287 9.29899C172.752 8.43293 175.334 7.9443 177.945 7.84959C180.455 7.77919 182.964 7.99919 185.424 8.50524C188.023 9.00766 190.593 9.85955 192.364 11.9347C193.83 13.8677 195.06 15.9696 196.027 18.1955C197.167 20.4788 198.115 22.8536 198.859 25.295C200.478 30.5719 201.109 36.103 200.72 41.6099C200.323 47.0637 198.953 52.4026 196.677 57.374C194.608 61.8966 191.447 68.0012 185.936 68.7602C183.302 69.1209 180.454 67.8963 178.042 66.9512C175.447 65.96 173.017 64.5821 170.834 62.8641C167.09 59.8961 163.71 56.2182 161.719 51.8568C160.956 50.1765 158.705 44.6781 161.767 44.0137C162.832 43.7768 164.065 44.4517 165.007 44.8363C165.949 45.2208 166.755 45.5586 167.632 45.9246C171.138 47.5155 174.781 48.784 178.517 49.7142C181.931 50.4462 185.648 50.5935 188.869 49.0266C192.09 47.4597 195.366 43.9368 193.451 40.2621C191.278 36.0407 185.415 35.8251 181.305 35.5485C176.02 35.1963 170.824 35.3979 165.77 37.0552C163.309 37.8648 160.022 39.7418 157.452 38.7297C155.073 37.7898 152.791 36.2328 150.517 35.0564C147.526 33.5058 142.143 31.2072 139.269 34.3211C138.011 35.6745 139.325 37.1717 140.338 38.2253C141.749 39.7073 143.532 40.7832 145.5 41.3407C146.62 41.6606 147.777 41.6995 148.928 41.8809C149.733 41.9829 150.501 42.2775 151.168 42.7398C151.528 43.0193 151.823 43.3736 152.032 43.7783C152.381 44.5584 152.01 44.559 151.378 44.7208C148.743 45.4019 145.693 44.4489 143.22 43.5112C140.793 42.6192 138.426 41.573 136.132 40.3789C133.875 39.0581 131.762 37.5042 129.829 35.7428C128.089 34.1715 126.036 32.986 123.806 32.264C121.292 31.6274 118.725 31.2229 116.137 31.0554C114.111 30.871 111.435 30.3145 109.572 31.446C108.904 31.8943 108.374 32.5192 108.04 33.2511C107.706 33.9831 107.582 34.7934 107.68 35.5918C108.051 39.8665 112.765 42.5656 116.384 43.7093C118.891 44.4469 121.475 44.8937 124.084 45.0408C125.44 45.1532 126.8 45.2327 128.149 45.3356C129.749 45.3448 131.339 45.5757 132.876 46.0215C134.592 46.6798 135.774 48.3754 134.511 50.0821C133.531 51.2068 132.42 52.2095 131.201 53.0685C129.117 54.7977 126.955 56.4386 124.745 57.9539C120.616 60.845 115.717 64.618 110.464 64.701C107.839 64.7342 104.912 63.902 103.354 61.7085C102.214 59.9961 101.353 58.1127 100.805 56.1292C99.2396 51.5126 98.4207 46.6752 98.3791 41.7997C98.4738 36.3568 99.8066 31.0067 102.276 26.156C104.54 21.6419 107.157 17.3144 110.103 13.2143C111.484 11.2083 113.075 9.35578 114.849 7.68842C115.704 6.90058 116.617 6.1791 117.582 5.53024C118.674 4.80008 120.147 3.63239 121.517 4.18561C122.123 4.51522 122.761 4.77983 123.423 4.97502C124.721 5.17968 126.048 4.99243 127.357 5.24082C130.018 5.8891 132.563 6.9472 134.899 8.37727C136.909 9.46975 138.895 10.4995 140.982 11.4187C141.859 11.7713 142.689 12.2307 143.454 12.7864C144.588 13.6649 146.147 16.1705 144.038 17.0441C143.03 17.4585 141.535 17.2145 140.483 17.0487C139.168 16.8438 137.881 16.4854 136.65 15.9809C134.353 15.0532 132.229 13.7436 130.369 12.1073C128.444 10.5565 126.66 8.83906 125.037 6.97488C124.158 5.86672 121.986 3.34878 123.061 1.81493C123.83 0.730271 125.793 0.786533 126.948 0.833637C128.298 0.898871 129.638 1.10994 130.943 1.46316C135.848 2.78426 140.251 6.1681 144.528 8.80675C145.741 9.55447 146.935 10.3161 148.094 11.1396C148.842 11.5826 149.505 12.1554 150.052 12.831C151.129 14.3837 150.943 17.0613 151.026 18.8873C151.31 24.5155 150.742 30.1545 149.342 35.6134C148.019 40.7879 145.821 45.6977 142.843 50.1303C139.898 54.3893 136.223 58.0926 131.987 61.0684C127.804 64.0942 123.312 66.6749 119.114 69.6816C115.086 72.5764 111.438 75.9681 108.257 79.7762C105.079 83.6195 102.185 87.6897 99.5989 91.9543C96.9018 96.2937 93.8732 100.758 91.954 105.506C91.0472 107.514 90.6594 109.718 90.8263 111.915C91.1483 113.955 92.0577 115.856 93.4431 117.386C94.5452 118.732 98.9148 122.65 97.3547 124.639C96.5701 125.662 94.6319 125.399 93.5451 125.346C92.1408 125.276 90.7566 125.151 89.3924 124.97C84.0228 124.256 78.8039 122.679 73.9372 120.3C71.4574 119.11 69.0886 117.701 66.8589 116.09C64.5926 114.434 62.2072 111.984 62.6761 108.954C63.5527 103.392 71.8216 105.606 75.4186 106.569C77.9712 107.117 80.284 108.462 82.0244 110.409C82.9941 111.633 83.7134 113.484 82.8423 114.949C82.4003 115.722 80.7738 116.849 80.3946 115.406C80.1072 114.29 80.9743 112.689 81.3679 111.689C81.8994 110.348 82.5243 109.055 83.1423 107.752C84.387 105.199 85.6278 102.671 86.9893 100.179C88.6587 97.0691 90.2871 93.9527 91.9648 90.8441C94.5528 86.0744 97.1712 81.3263 99.7675 76.5579C100.955 74.3671 102.144 72.1681 103.334 69.9608C103.608 69.4557 104.853 67.8053 104.617 67.1693L104.131 67.5229C105.474 68.6789 105.225 70.7394 104.181 72.0169C102.936 73.5071 100.753 73.8883 98.9166 74.0459C94.9717 74.3309 91.0096 74.2708 87.0753 73.8664C79.1481 73.0892 71.3844 71.1152 64.0483 68.0115C50.3741 62.3572 37.6521 54.0281 22.863 51.5458C15.5507 50.3177 7.98209 50.6091 1.06494 53.4486C0.998217 53.4859 0.947238 53.5461 0.921427 53.6181C0.895618 53.6901 0.896724 53.769 0.924538 53.8402C0.952354 53.9115 1.005 53.9702 1.07274 54.0056C1.14047 54.0409 1.21872 54.0506 1.29302 54.0327Z" fill="#303030"/>
</svg>
