<svg width="272" height="148" viewBox="0 0 272 148" fill="none" xmlns="http://www.w3.org/2000/svg">
<path d="M2.54933 106.788C8.49053 102.029 16.8342 103.282 23.6929 104.945C31.5002 106.847 38.7019 111.436 46.7941 112.04C49.7519 112.312 52.7338 111.964 55.5488 111.016C58.0019 110.133 61.2447 108.217 62.1325 105.564C62.3102 105.07 62.3825 104.544 62.3447 104.021C62.3069 103.497 62.1598 102.987 61.9129 102.524C61.666 102.06 61.3248 101.654 60.9112 101.33C60.4977 101.007 60.0209 100.774 59.5118 100.646C56.7681 100.068 54.6169 102.148 53.1194 104.207C50.6986 107.618 48.9358 111.45 47.9214 115.508C47.1413 118.606 46.6244 122.082 48.3282 124.979C49.0092 126.187 50.1356 127.081 51.4668 127.47C52.798 127.859 54.2286 127.712 55.4531 127.061C58.1759 125.619 59.7447 122.656 60.7468 119.871C63.7225 111.622 62.9494 102.653 61.9521 94.118C61.4089 89.4219 60.799 84.7128 60.6874 79.9758C60.6212 75.3458 61.0808 70.7232 62.0575 66.1968C63.0785 61.6101 64.3474 57.0821 65.8588 52.6328C67.3133 48.2128 69.0082 43.8358 70.2053 39.3373C71.2616 34.9835 71.9067 30.54 72.132 26.0656C72.5352 21.7589 72.654 17.4303 72.4876 13.108C72.3519 10.8554 72.0237 8.61847 71.5067 6.42178C71.4932 6.36348 71.4598 6.31173 71.4122 6.27545C71.3646 6.23918 71.3058 6.22066 71.246 6.22308C71.1862 6.22551 71.1291 6.24874 71.0846 6.28876C71.0401 6.32877 71.011 6.38307 71.0023 6.44227C70.3612 10.1189 70.0315 13.843 70.0168 17.575C69.8736 21.7719 69.9212 26.3942 68.4479 30.3642C68.2913 30.7984 68.1108 31.2235 67.9071 31.6376C67.7833 32.3051 67.3791 32.5591 66.6948 32.325C66.4308 31.9159 66.3384 31.4193 66.4377 30.9427C66.4027 29.7985 66.5611 28.6182 66.5806 27.4723C66.6239 25.1335 66.5832 22.8208 66.591 20.499C66.5987 18.1773 66.6841 15.6795 66.7337 13.2733L66.8046 9.9185C66.8193 9.32907 67.1145 8.28385 66.6905 7.80938C66.6454 7.76121 66.5842 7.73122 66.5185 7.72504C66.4528 7.71886 66.3871 7.73693 66.3338 7.77584C65.8625 8.16615 66.0116 9.03583 65.9462 9.58654C65.8501 10.6097 65.7564 11.606 65.6032 12.6577L64.8764 19.3056C64.6676 21.527 64.3982 23.7427 64.1557 25.9609L63.7578 29.5431C63.7395 30.1258 63.6668 30.7055 63.5407 31.2747C63.2979 32.4131 62.5023 32.5692 61.1416 31.7283C61.0953 31.5217 61.0764 31.3098 61.0854 31.0982C61.1168 28.9326 61.2769 26.7707 61.565 24.624C61.7309 22.4258 61.9035 20.2282 62.0701 18.0232L62.5684 11.4217C62.6716 10.3245 62.7282 9.21612 62.8112 8.11699C62.8593 7.60541 63.1313 6.73457 62.7727 6.28662C62.7284 6.23711 62.667 6.20616 62.6009 6.19994C62.5348 6.19372 62.4687 6.2127 62.4159 6.25308C61.9583 6.56998 61.9797 7.57026 61.8759 8.09698C61.6886 9.07765 61.511 10.1 61.3404 11.0482C60.9703 13.1797 60.627 15.3138 60.2771 17.4472C59.6431 21.3739 59.0855 25.3552 58.0851 29.2067C57.9773 29.6312 57.5905 31.7951 57.024 31.8981C56.4574 32.001 56.3851 30.0248 56.3623 29.6899C56.1567 25.8813 56.7202 21.9819 57.1351 18.218C57.409 15.7379 57.7098 13.2603 57.9837 10.7802C58.0913 9.63588 58.1982 8.49827 58.3052 7.36065C58.3628 6.74809 58.7321 5.49253 58.3327 4.97284C58.2983 4.92876 58.2498 4.89785 58.1954 4.88531C58.1409 4.87277 58.0838 4.87936 58.0336 4.90397C57.3187 5.28497 57.2285 6.75012 57.0121 7.46319C56.5541 8.96394 56.1363 10.4707 55.7586 11.9836C53.6737 20.4383 52.9309 29.1683 53.5576 37.8538C54.4041 49.4372 57.4247 60.8651 56.5435 72.5509C56.3184 75.5753 55.8093 78.5719 55.0231 81.501C54.2292 84.4551 53.033 87.2831 52.3053 90.2571C51.5633 93.0539 51.1052 95.9185 50.9378 98.8073C50.8741 100.642 51.8463 101.786 53.7 101.933C58.0131 102.284 60.8946 97.6381 62.9796 94.6016C66.3736 89.7053 69.8311 84.8556 73.1859 79.942C83.6085 64.4266 91.7162 46.4458 106.932 34.8444C123.823 21.9608 147.849 20.4504 165.98 31.7233C174.735 37.1072 181.677 44.9905 185.91 54.3566C189.875 63.3878 191.039 73.4798 190.125 83.2747C189.239 92.6987 186.539 102.271 181.616 110.433C177.05 118.004 170.593 124.256 162.879 128.576C154.982 132.898 146.06 134.995 137.065 134.645C128.069 134.294 119.338 131.509 111.801 126.586C96.9591 116.804 87.8856 99.2586 89.0298 81.4518C89.708 70.6976 94.1849 60.2054 102.106 52.801C106.187 49.1054 110.782 46.0215 115.748 43.6457C120.737 41.1403 126.109 39.0376 131.727 38.4384C150.359 36.4413 168.223 50.6295 174.221 67.6681C180.937 86.7368 170.638 108.525 152.01 116.118C143.684 119.512 134.139 119.912 125.706 116.647C116.716 113.167 109.959 105.734 106.562 96.7904C104.739 91.9579 103.84 86.8264 103.909 81.6621C103.969 76.8326 104.762 71.8003 107.061 67.5005C111.455 59.2552 120.477 54.3106 129.478 52.9768C134.092 52.3391 138.764 52.2315 143.402 52.656C148.119 53.0518 152.976 53.8955 157.365 55.8225C161.539 57.6546 164.076 60.9354 165.755 65.1067C167.261 68.9831 168.158 73.0694 168.413 77.2202C168.853 83.1561 168.275 89.5192 165.164 94.7274C162.751 98.7246 158.881 102.041 154.205 102.953C151.589 103.475 148.806 103.315 146.642 101.631C145.835 101.037 145.194 100.247 144.779 99.3357C144.365 98.4242 144.19 97.4218 144.272 96.4238C144.672 92.1762 148.475 89.3489 152.395 88.6105C155.162 88.1928 157.975 88.1962 160.74 88.6208C163.844 88.9804 166.94 89.4209 170.038 89.8344C175.799 90.6068 181.741 91.5524 187.555 91.3248C193.152 91.0442 198.627 89.5875 203.623 87.0495C206.058 85.8577 208.381 84.4512 210.565 82.8465C212.112 81.7017 218.158 76.7694 218.81 81.0342C219.113 83.005 217.107 84.2696 215.467 84.5908C214.029 84.8757 212.545 84.8337 211.125 84.4679C208.405 83.7689 206.021 82.1275 204.397 79.8355C202.539 77.2026 202.275 74.1626 202.569 71.0257C202.846 68.0841 203.332 65.1486 203.878 62.239C205.065 56.1074 206.6 50.0484 208.477 44.0914C210.212 38.489 211.962 32.7318 214.334 27.3659C215.476 24.7568 217.124 22.3177 219.773 21.0863C220.863 20.6183 222.818 20.1229 223.748 21.134C224.367 21.7761 224.148 22.8761 224.04 23.6605C223.253 29.6259 222.594 35.6033 222.062 41.5927C221.526 47.6813 221.116 53.7818 220.831 59.894C220.539 66.182 220.641 72.4597 220.417 78.7474C220.214 81.8909 219.667 85.0027 218.784 88.0265C218.058 90.8376 217.531 93.6946 217.073 96.5512C216.067 102.772 215.47 109.045 214.969 115.32C214.482 121.434 214.089 127.563 213.502 133.667C213.272 136.118 213.42 140.75 210.197 141.295C206.748 141.874 205.126 138.102 204.521 135.438C203.214 129.617 203.504 123.573 203.95 117.667C204.383 112.05 205.047 106.361 207.014 101.045C208.763 96.3065 211.808 90.9359 216.841 89.1138C222.823 86.9597 228.414 91.7092 233.177 94.6424C242.333 100.257 252.578 104.323 263.37 105.107C263.431 105.103 263.488 105.077 263.532 105.035C263.575 104.992 263.603 104.935 263.608 104.875C263.614 104.814 263.598 104.753 263.563 104.703C263.528 104.653 263.476 104.618 263.418 104.602C256.265 104.016 249.271 102.179 242.754 99.1759C239.341 97.6288 236.036 95.8525 232.863 93.8592C230.099 92.1257 227.42 90.1422 224.351 88.9844C221.718 87.8729 218.754 87.8381 216.095 88.8874C213.66 90.0328 211.58 91.8154 210.076 94.0463C206.287 99.313 204.754 105.865 203.968 112.202C203.117 119.014 202.54 126.172 203.542 132.996C203.928 135.606 204.432 138.838 206.555 140.668C208.17 142.062 210.744 142.42 212.276 140.71C214.143 138.624 213.904 134.805 214.14 132.22C214.492 128.484 214.755 124.74 215.032 121.004C215.607 113.364 216.19 105.718 217.332 98.1306C217.939 94.1412 218.749 90.1851 219.756 86.2775C220.61 82.8281 221.023 79.2845 220.985 75.7313C221.026 68.0817 221.245 60.4694 221.725 52.834C222.206 45.1986 222.886 37.4598 223.775 29.8017C223.968 28.1086 224.159 26.4424 224.395 24.7261C224.615 23.7876 224.687 22.8208 224.61 21.8601C224.271 19.9064 221.908 19.8269 220.374 20.3278C214.545 22.2314 212.87 29.5712 211.082 34.6524C208.542 41.7324 206.391 48.9455 204.637 56.2596C203.797 59.8411 203.091 63.4553 202.565 67.1001C202.094 70.3087 201.468 73.7879 202.437 76.9892C204.037 82.2125 209.735 86.0417 215.182 85.1617C217.216 84.8368 219.697 83.3655 219.313 80.9525C219.248 80.5101 219.071 80.0917 218.799 79.7369C218.527 79.3821 218.169 79.1027 217.758 78.9253C216.481 78.4249 215.007 79.2982 213.916 79.9223C211.044 81.5742 208.582 83.7874 205.692 85.4105C202.449 87.2463 198.989 88.6708 195.393 89.6509C188.162 91.5789 180.786 90.7225 173.465 89.7966C169.646 89.3153 165.834 88.7601 162.015 88.2856C158.966 87.9175 155.848 87.57 152.797 88.0981C148.624 88.7788 144.653 91.509 143.912 95.9213C143.119 100.6 147.417 103.789 151.737 103.774C156.934 103.76 161.599 100.721 164.599 96.6233C168.364 91.463 169.319 84.8434 169.01 78.6006C168.868 73.4524 167.73 68.3805 165.66 63.6648C164.747 61.5868 163.453 59.6984 161.844 58.0975C160.03 56.4948 157.903 55.2866 155.597 54.5494C150.231 52.6867 144.409 51.99 138.745 51.9194C133.482 51.8457 128.158 52.2823 123.148 53.998C118.105 55.6568 113.573 58.5812 109.983 62.4918C106.278 66.646 104.422 71.7277 103.745 77.1986C102.323 88.7114 105.832 101.163 114.038 109.513C121.332 116.942 131.773 120.307 142.059 119.176C147.595 118.519 152.927 116.688 157.699 113.805C162.471 110.921 166.572 107.052 169.728 102.457C176.217 93.023 178.597 80.9959 175.469 69.9178C172.589 59.7391 165.759 50.7646 157.031 44.8577C147.6 38.4841 136.039 35.9848 125.018 39.3085C118.833 41.2276 112.974 44.0724 107.641 47.7459C102.306 51.2837 97.8267 55.9664 94.5294 61.4534C83.1091 80.9359 88.5777 106.488 104.673 121.583C112.384 128.881 122.223 133.53 132.758 134.852C143.293 136.175 153.976 134.102 163.252 128.937C182.762 118.038 191.995 95.1649 190.835 73.481C190.197 61.6253 186.027 50.293 178.161 41.357C170.069 32.1284 158.99 26.0389 146.862 24.1538C134.487 22.2755 121.845 24.8082 111.149 31.3089C101.41 37.3133 94.1236 46.2647 87.8051 55.6873C84.5778 60.545 81.5874 65.554 78.533 70.5231C75.3234 75.7696 71.9044 80.8605 68.3936 85.9157L61.8418 95.3639C60.2174 97.6899 58.2671 100.522 55.3571 101.28C54.4895 101.539 53.5627 101.518 52.7074 101.221C51.5043 100.728 51.3901 99.6308 51.4682 98.5108C51.6273 96.5298 51.9077 94.5605 52.3078 92.6138C53.0343 88.8588 54.505 85.3503 55.4944 81.6879C59.2419 67.9015 55.6878 53.9856 54.2787 40.2237C53.1193 28.9246 54.3151 17.5079 57.7906 6.6943L57.9432 6.2265C58.0403 6.12809 58.0965 5.99662 58.1007 5.85847C58.1049 5.72031 58.0567 5.58569 57.9657 5.48161C57.9151 5.70224 57.8939 5.92857 57.9024 6.15475L57.7525 7.7501C57.6335 9.01561 57.5145 10.2811 57.3484 11.5422C56.8178 16.3207 56.172 21.0951 55.8904 25.897C55.8068 26.7855 55.1348 32.3452 56.8913 32.4424C57.5644 32.5057 57.9261 31.3309 58.1009 30.8448C58.5833 29.3099 58.9575 27.743 59.2208 26.1557C60.1665 21.3687 60.8516 16.5369 61.6775 11.7251C61.8626 10.622 62.0613 9.52013 62.266 8.42567C62.4053 7.99286 62.4952 7.54568 62.534 7.09267C62.4696 6.33282 62.3069 7.48557 62.2839 7.58528C62.2261 8.08842 62.2079 8.59535 62.2297 9.10134C61.9366 12.9899 61.643 16.8829 61.3491 20.7804C61.2099 22.6462 61.0665 24.5093 60.9187 26.3697C60.7044 27.9618 60.5877 29.5655 60.5692 31.1719C60.6644 33.2657 62.9426 33.8805 63.9001 31.8586C64.5157 30.5107 64.4306 28.7439 64.5929 27.3059C64.8046 25.3428 65.0186 23.38 65.2347 21.4173C65.6501 17.5765 66.0698 13.7384 66.4937 9.90285C66.5733 9.47889 66.6138 9.04851 66.6146 8.61715C66.1515 8.34272 66.3592 9.45559 66.3569 9.62514L66.278 12.1983C66.2362 14.2316 66.1955 16.3262 66.158 18.3871C66.0842 22.0609 66.1801 25.737 66.0188 29.4025C65.9719 30.3352 65.474 31.8028 66.1701 32.5609C66.254 32.6854 66.362 32.7917 66.4879 32.8735C66.6138 32.9552 66.7549 33.0107 66.9027 33.0367C67.0505 33.0626 67.2021 33.0584 67.3482 33.0244C67.4944 32.9904 67.6323 32.9273 67.7535 32.8388C68.7525 32.0363 69.1739 29.9368 69.4921 28.7918C69.8221 27.4105 70.0427 26.0052 70.152 24.5892C70.6811 18.5271 70.3154 12.4488 71.5408 6.49289L71.0431 6.51401C71.9309 10.5775 72.2748 14.7409 72.0658 18.8949C71.9356 23.0252 71.6603 27.1825 71.1855 31.2939C70.2033 39.7921 66.8841 47.6495 64.3543 55.7781C61.9407 63.5374 60.0781 71.5046 60.2127 79.6799C60.3434 87.9704 62.1069 96.1562 62.3416 104.422C62.5233 108.558 62.1341 112.698 61.1849 116.728C60.3502 120.045 59.0688 123.707 56.2946 125.911C55.6745 126.455 54.9326 126.841 54.1317 127.038C53.3307 127.234 52.4942 127.235 51.6928 127.04C49.5033 126.42 48.2602 124.402 47.856 122.272C47.1776 118.725 48.4711 114.717 49.7617 111.464C50.5011 109.598 51.4085 107.804 52.4727 106.102C53.4957 104.467 54.6502 102.66 56.3689 101.715C56.8834 101.39 57.4615 101.179 58.0643 101.096C58.6672 101.014 59.2808 101.061 59.8637 101.235C60.6619 101.587 61.2903 102.238 61.6141 103.048C61.9379 103.858 61.9312 104.763 61.5956 105.568C60.4078 108.451 56.7511 110.219 53.9379 110.96C51.0792 111.658 48.1116 111.789 45.2023 111.347C40.9132 110.741 36.8637 109.029 32.8609 107.471C29.1685 105.966 25.354 104.781 21.4593 103.927C15.0587 102.592 7.64634 102.052 2.21263 106.396C1.96288 106.597 2.28611 106.987 2.53586 106.787L2.54933 106.788Z" fill="#303030"/>
</svg>
