<svg width="171" height="189" viewBox="0 0 171 189" fill="none" xmlns="http://www.w3.org/2000/svg">
<path d="M113.801 0.817417C110.737 5.19351 108.059 9.8273 105.797 14.6666C103.999 18.6955 101.301 23.6596 101.283 28.0841C101.283 30.9978 103.189 34.4152 106.499 34.2353C109.808 34.0555 111.894 30.2244 111.894 27.0409C111.894 19.7386 104.394 14.6846 97.5057 16.4652C90.3113 18.2638 85.3113 26.2495 87.8293 33.4799C88.3436 35.1268 89.3435 36.5798 90.6979 37.6486C92.0523 38.7173 93.6981 39.3519 95.4194 39.4692C97.0427 39.6422 98.679 39.2946 100.092 38.4766C101.505 37.6586 102.621 36.4127 103.279 34.9188C103.323 34.7447 103.297 34.5604 103.206 34.4056C103.115 34.2508 102.967 34.1379 102.794 34.0914C96.7861 32.9894 90.5846 33.7748 85.0415 36.3397C81.2824 38.1383 74.0161 42.3829 76.1564 47.6708C76.9658 49.6313 79.286 49.5773 80.3471 51.1601C81.0303 52.5566 81.6308 53.9919 82.1457 55.4587C82.669 56.5987 83.3337 57.6683 84.1242 58.6423C85.0278 59.745 86.2902 60.495 87.6908 60.7613C89.0913 61.0276 90.5409 60.7932 91.7862 60.0991C93.1222 59.4184 94.4976 58.8178 95.905 58.3005C98.1712 57.635 99.9158 58.948 102.164 59.1818C103.315 59.2738 104.471 59.0711 105.522 58.5928C106.573 58.1145 107.485 57.3763 108.171 56.448C109.61 54.8472 111.894 50.8903 114.574 52.3472C118.172 54.3616 115.078 61.2322 120.096 61.8797C121.373 62.0416 122.974 61.2322 124.161 61.52C124.718 61.6639 124.161 61.2142 124.305 61.6279C124.449 62.0416 123.909 63.1028 123.837 63.6064C123.647 64.8069 123.721 66.0344 124.053 67.2036C125.258 71.2504 131.553 74.3979 134.143 69.7576C135.456 67.3834 134.647 64.3618 134.143 61.8258C133.334 57.9948 132.219 54.2537 131.139 50.4946C130.366 47.8327 129.916 45.0988 127.884 43.0125C126.189 41.5219 124.128 40.51 121.913 40.0807C115.402 38.48 108.081 39.2354 101.481 39.6311C93.2431 40.1347 85.0235 41.1059 76.8399 42.1491C74.2679 42.4729 70.7786 42.329 69.1059 44.6492C67.4332 46.9694 67.6311 50.8903 67.3073 53.6422C66.4861 60.9851 66.4379 68.3939 67.1634 75.7469C67.4692 78.3728 67.5232 81.5743 68.8181 83.8945C70.1131 86.2147 70.4009 88.4809 71.534 90.6932C73.9441 95.3875 79.0881 99.0927 84.5379 97.33C87.0919 96.5207 88.3869 94.5422 89.8077 92.4199C90.2377 91.5623 90.8703 90.8226 91.6507 90.2647C92.4311 89.7068 93.3357 89.3477 94.2863 89.2184C95.9202 89.2475 97.5236 89.6668 98.9626 90.4414C101.373 91.8108 103.948 92.8684 106.625 93.589C109.432 93.887 112.264 93.3357 114.754 92.0062C117.902 90.6213 121.319 88.6968 124.898 89.4342C129.035 90.2975 129.179 94.4703 130.618 97.6538C130.993 98.763 131.682 99.7393 132.602 100.464C133.521 101.189 134.632 101.631 135.798 101.737C135.915 101.732 136.028 101.698 136.129 101.639C136.229 101.579 136.314 101.495 136.373 101.395C138.623 97.2288 139.611 92.4976 139.215 87.7795C138.909 84.524 138.064 80.5851 134.485 79.5959C132.356 79.203 130.188 79.0702 128.028 79.2002L119.233 78.9844C113.387 78.8405 107.524 78.6786 101.66 78.5527C96.317 78.6155 90.9851 79.0663 85.707 79.9016C81.0426 80.4415 76.3286 80.3871 71.6779 79.7398C69.034 79.38 65.9044 78.9484 63.6202 80.693C61.336 82.4377 60.8144 85.4953 60.5806 88.1572C59.987 95.0818 62.0374 102.87 59.3935 109.507C58.808 111.056 57.7592 112.387 56.3899 113.32C54.8681 114.116 53.4073 115.024 52.0193 116.035C51.4765 116.531 51.0554 117.146 50.7886 117.831C50.5218 118.516 50.4165 119.253 50.4809 119.986C50.5452 120.718 50.7775 121.426 51.1598 122.054C51.542 122.682 52.0638 123.214 52.6847 123.608C56.2819 126.126 61.2101 124.291 65.0771 123.464C69.7174 122.492 76.1204 120.658 80.545 123.14C82.3436 124.147 83.8724 125.604 85.671 126.737C87.5587 127.786 89.6272 128.469 91.7682 128.751C95.5761 129.31 99.4626 128.622 102.848 126.791C110.042 122.996 116.733 114.507 125.564 119.309C128.657 121 131.751 123.715 135.474 123.625C137.113 123.463 138.704 122.974 140.15 122.187C140.809 121.722 141.573 121.429 142.373 121.333C143.173 121.238 143.984 121.343 144.734 121.639C145.483 121.935 146.147 122.413 146.666 123.03C147.184 123.647 147.541 124.383 147.705 125.172C148.334 126.971 148.316 128.769 149.035 130.568C149.601 132.017 150.494 133.316 151.643 134.363C152.515 135.06 153.603 135.429 154.719 135.406C156.518 135.406 156.715 134.147 157.165 132.654C158.514 128.14 157.309 123.284 155.69 119.003C154.287 115.316 152.723 110.604 149.521 108.086C146.32 105.568 141.625 105.334 137.632 105.028C131.769 104.56 125.87 104.416 119.988 104.506C108.639 104.65 97.3259 105.622 86.0307 106.773C80.2752 107.366 74.5197 108.014 68.7642 108.571C63.4943 109.147 58.0805 109.435 52.8466 110.37C48.1703 111.161 47.1091 114.902 45.904 118.967C44.559 123.302 43.6551 127.761 43.2062 132.277C42.7745 136.793 42.7745 141.34 43.2062 145.856C43.3141 146.917 43.5119 147.978 43.6198 149.04C43.8177 152.18 43.7636 155.332 43.458 158.464C43.0319 162.377 43.8366 166.325 45.7602 169.759C47.8645 173.015 51.1559 174.004 54.915 174.4C77.6274 176.659 100.488 177.026 123.262 175.497C134.026 175.037 144.756 173.981 155.402 172.331C158.622 171.792 161.266 170.299 162.111 166.936C163.1 163.087 161.41 159.741 159.072 156.935C157.093 154.453 155.277 151.432 151.661 151.773C149.176 152.277 146.89 153.488 145.079 155.263C142.758 157.061 140.043 159.831 136.877 159.939C132.74 160.101 130.708 155.137 127.075 153.806C118.279 150.532 112.11 160.137 107.416 165.695C104.556 169.076 100.797 172.188 96.0848 170.857C93.1181 169.702 90.6878 167.483 89.2682 164.633C87.6358 161.751 86.2345 158.744 85.0774 155.64C83.9803 152.943 82.9551 149.579 80.6349 147.673C77.8291 145.37 74.5377 146.881 72.1815 149.022C70.3829 150.604 69.1599 151.881 66.6239 151.809C63.9994 151.472 61.4299 150.794 58.9798 149.795C56.1021 148.914 52.6308 147.817 49.6991 149.076C46.4796 150.461 45.5263 154.238 44.8788 157.349C43.8716 162.079 43.7997 166.936 43.2601 171.738C43.178 172.916 42.9853 174.085 42.6846 175.227C42.109 177.026 40.2385 179.04 38.4579 176.702C38.1901 176.254 37.9901 175.769 37.8643 175.263C37.1629 172.979 36.7852 170.515 36.2276 168.195C34.9686 162.979 33.9614 157.691 35.7959 152.493C37.512 147.69 40.8945 143.663 45.3285 141.144C55.0409 135.748 66.5339 138.572 76.9658 139.489C88.189 140.46 99.6461 139.489 110.887 139.111C122.285 138.811 133.691 139.087 145.061 139.939C147.687 140.119 150.33 140.334 152.956 140.568C155.761 140.656 158.55 141.018 161.284 141.647C167.219 143.446 166.985 150.155 167.399 155.227C167.849 160.623 168.46 166.018 168.676 171.414C168.874 176.36 168.047 181.756 162.939 183.806C159.467 185.209 155.564 185.101 151.895 185.605C146.499 186.235 141.104 186.918 135.708 187.098C124.269 187.458 112.722 185.749 101.301 184.958C89.8797 184.166 78.4766 183.824 67.0375 183.788C55.5985 183.753 44.5191 183.788 33.3139 184.814C22.5223 185.749 11.5689 187.098 0.939165 184.814C0.0938255 184.634 -0.265893 185.929 0.579446 186.127C14.1948 189.112 28.044 186.271 41.7493 185.659C56.2819 184.994 70.8685 185.048 85.4012 185.551C92.8114 185.803 100.186 186.271 107.578 186.828C114.97 187.386 122.29 188.267 129.665 188.519C136.655 188.639 143.644 188.2 150.564 187.206C154.881 186.648 159.557 186.846 163.604 185.155C168.28 183.231 169.953 178.734 170.097 173.932C170 167.166 169.526 160.411 168.676 153.698C168.28 149.022 168.029 143.302 163.136 141.108C160.732 140.252 158.206 139.785 155.654 139.723C151.853 139.363 148.046 139.045 144.233 138.77C129.862 137.876 115.453 137.732 101.067 138.338C93.7467 138.59 86.3365 138.985 79.0162 138.536C72.1096 138.122 65.2569 136.737 58.3323 136.737C47.181 136.989 36.3355 143.068 33.7815 154.615C32.4506 160.605 34.465 166.666 35.7959 172.475C36.2456 174.418 36.3895 177.116 38.0442 178.501C38.6519 178.991 39.4144 179.25 40.1954 179.23C40.9763 179.21 41.7247 178.914 42.3069 178.393C44.1954 176.882 44.3213 174.13 44.5731 171.9C44.9328 168.662 45.0767 165.407 45.4724 162.169C45.6283 158.894 46.4225 155.68 47.8106 152.709C49.4293 149.975 52.2891 149.777 55.1308 150.353C59.6633 151.252 64.9871 154.777 69.6275 152.925C71.606 152.133 72.7751 150.263 74.4837 149.112C78.4586 146.414 80.9407 149.723 82.4695 153.068C85.3832 159.4 87.4696 168.59 94.3942 171.828C104.988 176.792 110.276 161.99 117.074 157.205C118.332 156.224 119.786 155.526 121.339 155.16C122.891 154.794 124.504 154.767 126.067 155.083C128.909 155.91 130.438 158.518 132.74 160.155C135.798 162.313 139.107 161.468 142.003 159.507C144.899 157.547 148.154 153.41 152.003 153.284C154.773 153.284 156.212 155.694 157.723 157.619C159.953 160.479 161.949 163.644 160.6 167.421C159.575 170.245 156.895 171.018 154.233 171.342C150.636 171.864 147.039 172.242 143.442 172.637C136.14 173.417 128.831 174.016 121.517 174.436C106.864 175.263 92.1999 175.371 77.5233 174.76C70.5448 174.352 63.5423 173.824 56.5158 173.177C53.2423 172.889 49.807 172.601 47.5228 169.903C45.6556 167.336 44.6825 164.228 44.7529 161.054C44.7529 157.583 45.2745 154.13 45.1127 150.658C45.1127 148.698 44.5911 146.791 44.4832 144.831C44.0564 138.86 44.3341 132.859 45.3105 126.953C45.8664 124.013 46.587 121.107 47.4688 118.248C47.8239 116.451 48.5733 114.756 49.6631 113.284C51.2818 111.485 54.0157 111.611 56.174 111.377L78.4766 108.967C92.8035 107.207 107.211 106.18 121.643 105.891C128.901 105.593 136.17 105.99 143.352 107.078C144.99 107.294 146.554 107.895 147.914 108.834C149.274 109.772 150.392 111.019 151.176 112.474C152.751 115.384 154.046 118.438 155.043 121.593C156.238 124.785 156.542 128.242 155.924 131.593C155.492 133.392 154.629 134.687 152.759 133.392C151.494 132.389 150.55 131.039 150.043 129.507C149.251 127.439 149.431 125.19 148.244 123.23C147.716 122.245 146.941 121.413 145.995 120.817C145.049 120.222 143.965 119.882 142.848 119.83C140.51 119.83 138.658 121.629 136.427 122.043C133.316 122.816 130.474 120.694 127.92 119.219C123.927 116.791 119.988 115.622 115.474 117.42C110.959 119.219 107.074 122.816 102.686 125.334C99.888 126.935 96.6835 127.684 93.466 127.49C90.2484 127.295 87.1578 126.164 84.5738 124.237C83.0562 122.992 81.3811 121.951 79.5917 121.143C76.6698 120.397 73.6126 120.354 70.6707 121.018C67.5771 121.431 64.5555 122.115 61.5159 122.816C59.8675 123.285 58.1568 123.497 56.4438 123.446C53.8718 123.194 50.5084 121.018 52.0552 118.05C53.0984 116.035 55.9222 115.388 57.6309 114.075C59.015 112.985 60.0626 111.526 60.6525 109.866C62.1633 105.981 62.0015 101.539 61.8936 97.4559C61.7856 93.3731 61.1022 88.2291 62.7209 84.1823C64.7893 78.8045 71.3542 81.1247 75.5809 81.4484C82.0198 82.0779 88.4048 80.5671 94.7899 79.9736C102.023 79.5989 109.272 79.6469 116.499 80.1175L127.039 80.3873C128.729 80.3873 130.438 80.3873 132.129 80.5132C133.279 80.4626 134.41 80.8162 135.327 81.5127C136.244 82.2092 136.887 83.2046 137.147 84.3262C138.039 87.5839 138.125 91.0098 137.399 94.3084C137.156 96.0203 136.614 97.6761 135.798 99.2006C135.042 100.298 134.683 100.424 133.388 99.3624C132.522 98.5447 131.873 97.525 131.499 96.3948C130.993 94.2969 130.168 92.2891 129.053 90.4414C128.337 89.6129 127.442 88.9587 126.435 88.5286C125.429 88.0985 124.337 87.9038 123.244 87.9594C117.29 87.9594 112.452 93.499 106.355 92.1501C102.056 91.1968 97.7935 86.8802 93.1351 88.0493C91.2384 88.6688 89.6536 89.9959 88.7106 91.7544C86.912 94.5062 85.0055 96.5926 81.3903 96.3948C79.7495 96.2393 78.1708 95.6885 76.7894 94.7895C75.408 93.8905 74.2651 92.6701 73.4585 91.2328C72.0556 88.9845 71.6599 86.4126 70.5628 84.0384C67.9548 78.7685 68.0268 71.718 68.0447 65.8726C68.0447 62.7251 68.2246 59.5775 68.4764 56.43C68.7282 53.2824 68.5843 49.4514 69.6275 46.4837C70.5628 43.8578 73.2247 43.8578 75.5089 43.57L80.7788 42.9045C84.5918 42.4369 88.4048 42.0112 92.2179 41.6275C99.5488 40.8665 106.917 40.5182 114.287 40.5844C119.053 40.5844 125.798 40.9261 128.316 45.8183C129.455 48.6138 130.328 51.5103 130.924 54.4695C131.992 57.8789 132.821 61.3586 133.406 64.8834C133.657 66.682 133.783 69.236 131.841 70.2792C130.942 70.6612 129.941 70.7361 128.995 70.4922C128.049 70.2483 127.21 69.6993 126.607 68.9302C126.062 68.3008 125.654 67.5647 125.409 66.7688C125.165 65.9729 125.089 65.1347 125.186 64.3078C125.186 63.4085 125.977 62.1135 125.762 61.2142C125.294 59.1638 121.931 60.6567 120.564 60.5488C118.351 60.3509 118.459 58.4984 118.136 56.7537C118.001 54.7554 117.152 52.8721 115.743 51.4479C112.236 48.8579 109.287 53.2465 107.29 55.4767C106.554 56.435 105.581 57.185 104.466 57.653C102.47 58.3365 100.761 57.3113 98.8906 56.8437C97.6947 56.5661 96.4434 56.6474 95.2935 57.0775C93.0272 57.8149 90.6531 59.7933 88.0991 59.5056C87.2033 59.2843 86.3699 58.8614 85.6624 58.2692C84.9548 57.677 84.3918 56.931 84.0163 56.0882C83.2524 54.7046 82.6028 53.2609 82.0738 51.7716C81.8571 50.8906 81.3809 50.0948 80.7069 49.4874C78.8003 47.9766 76.5701 47.6888 77.5054 44.5413C78.4406 41.3937 81.8759 39.4872 84.5199 38.0843C90.0605 35.1869 96.4162 34.2428 102.56 35.4044L102.092 34.577C100.743 37.8685 96.5705 38.8937 93.4409 37.6886C89.538 36.1958 88.207 31.5554 88.8005 27.7604C89.9696 20.1703 99.3763 14.3788 106.157 19.1451C107.805 20.206 109.084 21.7497 109.822 23.5654C110.559 25.381 110.717 27.38 110.276 29.2892C109.502 31.9511 106.409 34.4332 103.963 31.8971C102.164 29.9906 102.524 27.2028 103.207 24.9006C105.853 16.5313 109.818 8.63806 114.952 1.51887C115.456 0.799431 114.287 0.115965 113.801 0.835403V0.817417Z" fill="#777777"/>
</svg>
