<?xml version="1.0" encoding="UTF-8"?> <svg xmlns="http://www.w3.org/2000/svg" width="1839" height="849" viewBox="0 0 1839 849" fill="none"><path d="M1401.17 197V0.445992H1428.24L1499.02 93.506L1569.8 0.445992H1596.88V197H1570.37V7.778L1499.02 101.402L1427.96 7.778V197H1401.17ZM1702.61 197H1625.06V0.445992H1651.85V72.92H1710.22C1746.04 72.92 1783.26 91.532 1783.26 135.242C1783.26 184.028 1750.27 197 1702.61 197ZM1705.43 76.304H1651.85V193.052H1695.84C1735.04 193.052 1755.63 174.722 1755.63 134.96C1755.63 94.916 1730.53 76.304 1705.43 76.304ZM1809.21 197V0.445992H1836V197H1809.21ZM34.9555 492V295.446H173.699V299.958H61.7455V367.92H115.325C158.753 367.92 193.157 386.25 193.157 429.678C193.157 478.746 168.905 492 115.325 492H34.9555ZM61.7455 486.924H115.325C154.523 486.924 165.521 469.722 165.521 429.678C165.521 389.916 144.653 372.996 115.325 372.996H61.7455V486.924ZM284.999 438.138L197.579 295.446H228.599L311.507 432.216C327.581 385.686 348.731 325.056 358.883 295.446H363.959C349.859 335.772 314.045 439.83 299.945 479.31C295.997 490.308 283.307 497.922 270.617 497.358C253.979 496.512 241.571 484.668 240.725 467.466C239.879 451.11 252.569 438.138 269.207 438.138H284.999ZM269.207 442.65C256.517 442.65 244.673 455.058 245.519 467.466C246.365 480.156 257.645 491.718 270.053 492.564C281.051 493.41 292.331 486.642 295.433 477.9C298.535 468.876 303.047 456.75 307.841 442.65H269.207ZM515.111 492H332.939V487.206C344.783 487.206 349.577 479.31 367.907 426.576C384.827 378.072 409.079 306.444 412.745 295.446H441.791L516.521 487.206C534.005 488.052 548.105 502.716 548.105 520.482C548.105 538.53 533.159 553.476 515.111 553.476C496.781 553.476 481.835 538.53 481.835 520.482H486.629C486.629 535.992 499.319 548.682 515.111 548.682C530.621 548.682 543.311 535.992 543.311 520.482C543.311 504.69 530.621 492 515.111 492ZM372.419 427.986C360.011 463.518 353.525 480.156 345.911 487.206H487.757L415.565 301.368C408.797 321.39 387.647 384.276 372.419 427.986ZM561.778 492V295.446H703.342V299.958H588.568V387.378H677.962V391.89H588.568V487.206H703.342V492H561.778ZM722.881 492V295.446H749.953L820.735 388.506L891.517 295.446H918.589V492H892.081V302.778L820.735 396.402L749.671 302.778V492H722.881ZM1059.68 295.446H1086.47V360.87C1092.11 327.03 1102.55 291.216 1144 291.216C1184.61 291.216 1220.14 308.7 1220.14 355.794C1220.14 413.886 1180.1 424.038 1133.85 424.038H1086.47V492H1059.68V295.446ZM1096.63 336.618C1083.94 380.328 1086.47 419.808 1086.47 419.808H1133.85C1161.2 419.808 1192.51 415.296 1192.51 355.794C1192.51 308.982 1174.74 295.728 1144 295.728C1126.8 295.728 1107.62 298.266 1096.63 336.618ZM1215.97 492L1283.65 295.446H1312.7L1389.12 492H1360.36L1329.06 411.63H1248.69L1221.05 492H1215.97ZM1286.47 301.65L1250.38 406.836H1327.36L1286.47 301.65ZM1578.39 492H1396.22V487.206C1408.07 487.206 1412.86 479.31 1431.19 426.576C1448.11 378.072 1472.36 306.444 1476.03 295.446H1505.07L1579.8 487.206C1597.29 488.052 1611.39 502.716 1611.39 520.482C1611.39 538.53 1596.44 553.476 1578.39 553.476C1560.06 553.476 1545.12 538.53 1545.12 520.482H1549.91C1549.91 535.992 1562.6 548.682 1578.39 548.682C1593.9 548.682 1606.59 535.992 1606.59 520.482C1606.59 504.69 1593.9 492 1578.39 492ZM1435.7 427.986C1423.29 463.518 1416.81 480.156 1409.19 487.206H1551.04L1478.85 301.368C1472.08 321.39 1450.93 384.276 1435.7 427.986ZM1702.61 492H1625.06V295.446H1651.85V367.92H1710.22C1746.04 367.92 1783.26 386.532 1783.26 430.242C1783.26 479.028 1750.27 492 1702.61 492ZM1705.43 371.304H1651.85V488.052H1695.84C1735.04 488.052 1755.63 469.722 1755.63 429.96C1755.63 389.916 1730.53 371.304 1705.43 371.304ZM1809.21 492V295.446H1836V492H1809.21ZM0.807031 787V590.446H27.597V646C29.007 637.54 39.159 586.216 87.099 586.216C113.325 586.216 147.447 590.728 147.447 631.618C147.447 657.562 131.373 675.61 103.173 677.584C138.705 680.686 165.495 692.248 165.495 732.292C165.495 788.128 114.735 787 70.461 787H0.807031ZM76.101 680.122H27.597V782.206H72.435C115.299 782.206 137.295 779.668 137.295 732.292C137.295 691.402 115.299 680.122 76.101 680.122ZM87.099 590.728C33.801 590.728 28.725 659.818 27.597 675.892H87.099C104.019 675.61 119.811 665.176 119.811 629.08C119.811 597.778 104.019 590.728 87.099 590.728ZM215.964 787H189.174V590.446H215.964V782.206C240.216 782.206 315.792 772.9 321.432 663.484V590.446H348.222V787H321.432V698.734C309.306 751.186 271.236 787 215.964 787ZM547.332 787H365.16V782.206C377.004 782.206 381.798 774.31 400.128 721.576C417.048 673.072 441.3 601.444 444.966 590.446H474.012L548.742 782.206C566.226 783.052 580.326 797.716 580.326 815.482C580.326 833.53 565.38 848.476 547.332 848.476C529.002 848.476 514.056 833.53 514.056 815.482H518.85C518.85 830.992 531.54 843.682 547.332 843.682C562.842 843.682 575.532 830.992 575.532 815.482C575.532 799.69 562.842 787 547.332 787ZM404.64 722.986C392.232 758.518 385.746 775.156 378.132 782.206H519.978L447.786 596.368C441.018 616.39 419.868 679.276 404.64 722.986ZM593.998 787V590.446H735.562V594.958H620.788V682.378H710.182V686.89H620.788V782.206H735.562V787H593.998ZM822.218 594.958H741.002V590.446H929.942V594.958H849.008V787H822.218V594.958ZM944.02 787V590.446H970.81V662.92H1029.18C1065 662.92 1102.22 681.532 1102.22 725.242C1102.22 774.028 1069.23 787 1021.57 787H944.02ZM970.81 783.052H1014.8C1054 783.052 1074.59 764.722 1074.59 724.96C1074.59 684.916 1049.49 666.304 1024.39 666.304H970.81V783.052ZM1239.24 787V590.446H1266.03V646C1267.44 637.54 1277.59 586.216 1325.53 586.216C1351.76 586.216 1385.88 590.728 1385.88 631.618C1385.88 657.562 1369.8 675.61 1341.6 677.584C1377.14 680.686 1403.93 692.248 1403.93 732.292C1403.93 788.128 1353.17 787 1308.89 787H1239.24ZM1314.53 680.122H1266.03V782.206H1310.87C1353.73 782.206 1375.73 779.668 1375.73 732.292C1375.73 691.402 1353.73 680.122 1314.53 680.122ZM1325.53 590.728C1272.23 590.728 1267.16 659.818 1266.03 675.892H1325.53C1342.45 675.61 1358.24 665.176 1358.24 629.08C1358.24 597.778 1342.45 590.728 1325.53 590.728ZM1413.43 787L1481.11 590.446H1510.15L1586.58 787H1557.81L1526.51 706.63H1446.14L1418.5 787H1413.43ZM1483.93 596.65L1447.83 701.836H1524.82L1483.93 596.65ZM1688.24 791.512C1621.69 791.512 1585.03 747.52 1585.03 688.864C1585.03 629.362 1621.69 586.216 1688.24 586.216C1741.26 586.216 1767.48 613.57 1771.15 635.848L1766.36 636.412C1760.72 602.29 1717.01 590.728 1688.24 590.728C1640.3 590.728 1613.79 629.08 1613.79 688.864C1613.79 752.032 1645.94 786.154 1688.24 786.154C1708.55 786.154 1748.03 785.59 1780.46 754.006L1783.84 757.108C1750 790.384 1709.39 791.512 1688.24 791.512ZM1833.66 729.19H1806.87V590.728H1833.66V729.19ZM1802.07 772.9C1802.07 762.748 1810.25 754.288 1820.4 754.288C1830.55 754.288 1838.73 762.748 1838.73 772.9C1838.73 783.052 1830.55 791.23 1820.4 791.23C1810.25 791.23 1802.07 783.052 1802.07 772.9Z" fill="black"></path></svg> 