<?xml version="1.0" encoding="UTF-8"?> <svg xmlns="http://www.w3.org/2000/svg" width="4211" height="656" viewBox="0 0 4211 656" fill="none"><path d="M4209.27 543.455C4155.27 553.455 4093.27 545.455 4026.77 543.455C3960.27 541.455 3679.27 473.454 3629.77 462.954C3580.27 452.454 3448.27 446.954 3405.77 448.954C3363.27 450.954 3324.27 459.954 3289.27 473.454C3254.27 486.954 3239.77 501.955 3217.27 522.955C3194.77 543.955 3191.77 580.455 3191.27 590.955C3190.77 601.455 3203.77 626.455 3219.77 625.955C3235.77 625.455 3246.77 611.955 3256.27 590.955C3265.77 569.955 3264.77 541.955 3261.77 524.955C3258.77 507.955 3230.77 485.954 3217.27 480.454C3203.77 474.954 3163.27 468.954 3120.77 473.454C3078.27 477.954 3037.27 503.455 3007.77 519.455C2978.27 535.455 2895.27 598.455 2888.27 601.955C2881.27 605.455 2871.77 611.455 2870.27 606.455C2868.77 601.455 2871.77 599.455 2888.27 575.455C2904.77 551.455 2964.77 493.954 2984.27 468.954C3003.77 443.954 3063.77 361.954 3096.27 301.954C3139.42 222.292 3149.77 137.484 3149.77 99.454C3149.77 52.2919 3135.77 35.4542 3118.27 19.4541C3100.77 3.45409 3059.23 5.40442 3021.5 13.7912C2990 20.7923 2943.77 51.4541 2917.27 73.4541C2890.77 95.4541 2861.27 143.454 2850.77 169.454C2840.27 195.454 2831.27 241.954 2832.27 260.454C2833.27 278.954 2846.77 284.954 2850.77 284.954C2854.77 284.954 2870.43 283.767 2874 268.291C2878.5 248.791 2871.32 221.791 2850.77 191.291C2836.89 170.7 2798 102.791 2764.5 66.2912C2731 29.7911 2694 1.79696 2658.5 5.29557C2623 8.79417 2604.75 25.7912 2595 40.7912C2588.5 50.7912 2578.26 74.9534 2576.76 106.453C2575.26 137.953 2580.26 176.953 2589.76 219.453C2599.26 261.953 2614.26 299.953 2626.26 326.453C2638.26 352.953 2672.26 407.453 2699.76 444.953C2721.76 474.953 2805.26 575.454 2844.26 621.954C2845.34 623.568 2845.9 626.797 2839.5 626.797C2831.5 626.797 2595.14 582.722 2522 550.797C2279.5 444.953 1932.5 356.297 1607 468.954C1432.03 529.511 625 877.797 3 411.297" stroke="#3B3B3B" stroke-width="10"></path></svg> 